<svg xmlns="http://www.w3.org/2000/svg" fill-rule="evenodd" stroke-linejoin="round" stroke-miterlimit="2" clip-rule="evenodd" viewBox="0 0 512 512"><path fill="#f6a8a8" d="M384.01 412.346c0-7.446-2.96-14.587-8.226-19.853a28.066 28.066 0 0 0-19.854-8.224H156.09a28.066 28.066 0 0 0-19.854 8.224 28.075 28.075 0 0 0-8.227 19.853v.001H384.01Z"/><path fill="#ec5555" d="M212.093 356.191h87.782v28.078h-87.782z"/><path fill="#f6a8a8" d="M448 145.36c0-24.94-20.22-45.16-45.17-45.16H109.17C84.22 100.2 64 120.42 64 145.36v165.67c0 24.94 20.22 45.17 45.17 45.17h293.66c24.95 0 45.17-20.23 45.17-45.17V145.36Z"/><path fill="#1f78bc" d="M427.058 148.537a29.39 29.39 0 0 0-29.393-29.386H114.319a29.39 29.39 0 0 0-29.393 29.386V309.66a29.35 29.35 0 0 0 8.606 20.78 29.398 29.398 0 0 0 20.787 8.615h283.346a29.398 29.398 0 0 0 20.786-8.616 29.35 29.35 0 0 0 8.607-20.78V148.538Z"/><path fill="#d2dbe1" d="M133.48 141.96h245.06v174.239H133.48z"/><path fill="#f6a8a8" d="M133.48 141.955h245.06v22.647H133.48z"/><path fill="#ec5555" d="M256.006 210.05c11.296-21.462 33.886-21.462 45.182-10.731 3.249 3.085 5.563 7.057 6.942 11.661 3.42 11.41 1.106 26.701-6.942 41.992-7.905 16.096-28.24 32.193-45.182 42.923-16.943-10.73-37.277-26.827-45.183-42.923-11.296-21.461-11.296-42.923 0-53.653 11.297-10.731 33.886-10.731 45.183 10.73Z"/><path fill="#fff" d="M283.286 199.785c6.85.117 13.45 4.57 16.22 10.838 0 0 .85 4.245-2.001 5.625-2.175 1.053-4.801-.178-5.93-2.53-2.088-4.26-7.38-6.473-12.06-4.706 0 0-1.88.627-3.483-.215-3.13-1.648-2.707-6.754 1.602-8.132a18.26 18.26 0 0 1 5.652-.88zm14.086 18.455c1.724.027 3.36 1.184 3.962 2.816 0 0 .943 3.41-1.03 5.29-2.007 1.908-5.801 1.177-6.883-1.498-1.169-2.883.856-6.527 3.806-6.607h.145z"/><path fill="#321111" d="M301.1 352.41c34-.03 68-.11 102-.22 21.15-.2 40.69-18.15 40.9-40.91.18-55.39.18-110.79 0-166.19-.2-21.3-18.55-40.83-41.18-40.9h-24.29c-1.52-.31-1.54-.31-2.83-1.17l-.86-1.3-.31-1.53.31-1.53.86-1.3 1.3-.87 1.53-.3c8.21 0 16.41-.03 24.62 0 25.29.24 48.6 21.89 48.85 48.85.18 55.43.18 110.86 0 166.3-.24 25.35-22.26 48.6-48.85 48.85-33.09.11-66.17.18-99.26.22v19.86h20.1c6.01 0 12.03-.13 18.05 0 8.49 0 16.94-.9 24.7 1.87 12.29 4.4 21.21 16.82 21.26 30.2-.3 1.53-.31 1.54-1.17 2.83l-1.3.87-1.53.3H128c-1.52-.3-1.54-.31-2.83-1.17l-.87-1.29c-2.86-14.41 12.41-33.57 31.77-33.61h52.04v-19.86c-33.09-.04-66.17-.11-99.26-.22-24.94-.24-48-21.51-48.82-47.59-.02-.52-.03-1.05-.03-1.57v-15.36c.3-1.52.31-1.54 1.17-2.83l1.3-.87 1.53-.3 1.53.3 1.3.87.87 1.3.3 1.53c0 9.98-.86 19.99 2.33 29.03 5.56 15.81 21.43 27.33 38.57 27.49 34.02.11 68.03.19 102.05.22.36-.13.75-.2 1.16-.22h87.78c.12 0 .25.01.37.01.29.04.57.11.84.21Zm-90.24 35.61c-18.36 0-36.72.06-55.08.25-11.13.16-21.51 8.76-23.45 20.07h247.34c-1.89-10.99-12.08-19.96-23.6-20.07h-32.08c-7.92 0-15.84-.01-23.76-.03l-.34.03h-87.78c-.44-.02-.86-.11-1.25-.25Zm5.25-27.61v19.86h79.78v-19.86c-26.59.03-53.19.03-79.78 0Zm181.77-245.28c17.21.14 33.03 15.02 33.19 33.18.17 53.84.17 107.69 0 161.53-.15 17.26-15.07 33.01-33.18 33.19-94.59.3-189.19.3-283.77 0-17.25-.17-33.03-14.89-33.19-33.19-.17-53.84-.17-107.69 0-161.53.15-17.19 15.12-33.03 33.19-33.18 94.58-.31 189.18-.31 283.76 0Zm-283.55 8c-13.22.04-25.28 11.34-25.4 25.23-.17 53.86-.46 107.73 0 161.59.21 13.02 11.5 24.87 25.08 25.08 94.65.91 189.33.91 283.98 0 13.07-.2 24.86-11.43 25.08-25.08.46-53.91.46-107.83 0-161.75-.21-13.08-11.55-24.85-25.08-25.07-94.55-.81-189.11 0-283.66 0Zm19.14 14.83h245.06c.19.01.38.03.57.04.09.02.18.04.26.06 1.77.31 2.41 1.15 2.76 2.01.13.23.23.53.31.98.08.32.07.49.1.91v44.77c-.26 3.42-5.14 5.43-7.31 2.25-.44-.65-.63-1.44-.69-2.25v-18.12H137.47V312.2h237.06v-99.57c.15-2.06 1.69-3.84 3.7-3.99 1.11-.08 1.39.16 1.76.27 2.3 1.1 2.37 1.44 2.54 3.72V316.2c-.22 3.05-1.7 3.49-2.87 3.83-.49.15-.63.13-1.13.17H133.47c-3.05-.22-3.49-1.7-3.84-2.88-.14-.49-.12-.62-.16-1.12V141.92c.07-.95.18-1.36.31-1.63.37-1.07 1-1.56 1.65-1.86.27-.14.6-.25 1.01-.34.41-.11.56-.1 1.03-.13Zm176.1 72.3c3.74.81 4.02 6.4 4.08 11.2.25 19.35-9.48 38.28-22.55 51.76-9.65 9.95-20.91 18.38-32.55 25.79-1.59 1.01-4.08.66-6.32-.78-14.3-9.25-28.06-19.77-38.35-33.05-9.81-12.66-15.75-28.7-15.53-43.78.16-10.57 4.22-21.46 12.85-27.56 13.48-9.52 33.67-6.19 44.71 8.55 0 0 6.28-8.15 14.84-11.7 10.9-4.51 24.32-2.5 33.03 5.58 0 0 1.74 1.76 1.32 3.83-.61 3.05-4.5 3.95-7.46 1.4-7.42-6.27-18.84-6.83-27.28-1.65-4.66 2.86-8.26 7.23-10.83 12.07 0 0-4.79 4.26-7.19-.24-.39-.73-.44-.8-.62-1.11-4.57-7.86-12.65-13.84-21.48-14.27-8.66-.43-17.53 4.43-21.2 12.31-6.32 13.55-1.12 31.44 6.66 45.01 5.97 10.43 15.16 18.79 24.75 26.39 4.93 3.9 10.06 7.55 15.33 10.98l.22.15c16.55-10.75 33.4-23.36 41.62-39.99 5.79-11.06 9.61-23.62 7.46-35.71 0 0-.43-2.15.58-3.56.86-1.2 2.33-1.8 3.91-1.62Zm42.3-113.77 1.3.87.86 1.3c.11.51.31 1.01.31 1.53 0 1.43-.42 1.7-1.17 2.83l-1.3.86-1.53.31c-80.48 0-160.96-.27-241.44 0-21.35.2-40.82 18.87-40.9 41.17v127.15l-.3 1.53-.87 1.29c-1.29.87-1.31.87-2.83 1.18l-1.53-.31-1.3-.87-.87-1.29-.3-1.53c0-42.49-.14-84.98 0-127.47.24-24.93 21.51-48 47.59-48.83.52-.01 1.05-.02 1.57-.02h241.18l1.53.3Zm22.66 49.47H137.47v14.65h237.06v-14.65Zm-202.48 3.32c3.78.02 6.13 8.02-.09 8-3.48-.01-5.49-5.93-1.61-7.66.54-.23 1.12-.34 1.7-.34Zm-13.31 0c3.77.02 6.12 8.02-.09 8-3.49-.01-5.5-5.93-1.61-7.66.53-.23 1.11-.34 1.7-.34Zm-13.32 0c3.78.02 6.12 8.02-.09 8-3.43-.01-5.67-5.86-1.61-7.66.53-.23 1.12-.34 1.7-.34Z"/></svg>